M48
; DRILL file KiCad 10.0.5 date 2026-08-01T13:22:40
; FORMAT={-:-/ absolute / metric / decimal}
; #@! TF.CreationDate,2026-08-01T13:22:40+08:00
; #@! TF.GenerationSoftware,Kicad,Pcbnew,10.0.5
; #@! TF.FileFunction,Plated,1,2,PTH
FMAT,2
METRIC
; #@! TA.AperFunction,Plated,PTH,ViaDrill
T1C0.300
; #@! TA.AperFunction,Plated,PTH,ComponentDrill
T2C0.750
; #@! TA.AperFunction,Plated,PTH,ComponentDrill
T3C0.800
; #@! TA.AperFunction,Plated,PTH,ComponentDrill
T4C0.840
; #@! TA.AperFunction,Plated,PTH,ComponentDrill
T5C0.900
; #@! TA.AperFunction,Plated,PTH,ComponentDrill
T6C1.000
; #@! TA.AperFunction,Plated,PTH,ComponentDrill
T7C1.270
%
G90
G05
T1
X111.722Y-81.5
X118.0Y-97.0
X120.0Y-89.5
X122.0Y-78.556
X129.0Y-86.5
X129.5Y-108.0
X130.5Y-109.5
X131.5Y-96.625
X132.53Y-99.97
X133.0Y-78.5
X134.0Y-80.805
X134.5Y-100.5
X136.0Y-79.555
X136.5Y-100.5
X137.0Y-105.5
X137.396Y-81.896
X138.0Y-104.5
X139.5Y-100.5
X139.5Y-106.5
X140.5Y-85.0
X140.69Y-78.0
X141.0Y-99.0
X144.0Y-81.165
X144.5Y-94.0
X146.5Y-108.5
X147.0Y-110.5
X148.0Y-81.5
X149.5Y-93.5
X150.2Y-114.8
T2
X131.86Y-107.2
X133.13Y-107.2
X134.4Y-107.2
T3
X138.0Y-116.0
X142.0Y-116.0
X143.0Y-85.0
X143.0Y-90.0
X143.0Y-93.5
X143.0Y-98.5
T4
X113.0Y-75.1
X113.0Y-77.64
X113.0Y-80.18
X113.0Y-82.72
X113.0Y-85.26
X113.0Y-87.8
X113.0Y-90.34
X113.0Y-92.88
X128.24Y-75.1
X128.24Y-77.64
X128.24Y-80.18
X128.24Y-82.72
X128.24Y-85.26
X128.24Y-87.8
X128.24Y-90.34
X128.24Y-92.88
T5
X141.96Y-104.5
X144.5Y-104.5
T6
X130.0Y-112.5
X130.0Y-115.04
X132.46Y-98.5
X135.0Y-98.5
X146.5Y-88.5
X146.5Y-94.0
X146.5Y-99.5
X151.5Y-88.5
X151.5Y-94.0
X151.5Y-99.5
T7
X113.0Y-98.8
X113.0Y-101.34
X113.0Y-103.88
X113.0Y-106.42
X113.0Y-108.96
X113.0Y-111.5
X113.0Y-114.04
X113.0Y-116.58
M30
