%TF.GenerationSoftware,KiCad,Pcbnew,10.0.5*%
%TF.CreationDate,2026-08-01T13:19:58+08:00*%
%TF.ProjectId,Vibra1,56696272-6131-42e6-9b69-6361645f7063,rev?*%
%TF.SameCoordinates,Original*%
%TF.FileFunction,Legend,Top*%
%TF.FilePolarity,Positive*%
%FSLAX46Y46*%
G04 Gerber Fmt 4.6, Leading zero omitted, Abs format (unit mm)*
G04 Created by KiCad (PCBNEW 10.0.5) date 2026-08-01 13:19:58*
%MOMM*%
%LPD*%
G01*
G04 APERTURE LIST*
%ADD10C,0.150000*%
%ADD11C,0.100000*%
%ADD12C,0.120000*%
%ADD13C,0.127000*%
%ADD14C,0.200000*%
G04 APERTURE END LIST*
D10*
X138738095Y-93954819D02*
X138738095Y-94764342D01*
X138738095Y-94764342D02*
X138785714Y-94859580D01*
X138785714Y-94859580D02*
X138833333Y-94907200D01*
X138833333Y-94907200D02*
X138928571Y-94954819D01*
X138928571Y-94954819D02*
X139119047Y-94954819D01*
X139119047Y-94954819D02*
X139214285Y-94907200D01*
X139214285Y-94907200D02*
X139261904Y-94859580D01*
X139261904Y-94859580D02*
X139309523Y-94764342D01*
X139309523Y-94764342D02*
X139309523Y-93954819D01*
X140261904Y-93954819D02*
X139785714Y-93954819D01*
X139785714Y-93954819D02*
X139738095Y-94431009D01*
X139738095Y-94431009D02*
X139785714Y-94383390D01*
X139785714Y-94383390D02*
X139880952Y-94335771D01*
X139880952Y-94335771D02*
X140119047Y-94335771D01*
X140119047Y-94335771D02*
X140214285Y-94383390D01*
X140214285Y-94383390D02*
X140261904Y-94431009D01*
X140261904Y-94431009D02*
X140309523Y-94526247D01*
X140309523Y-94526247D02*
X140309523Y-94764342D01*
X140309523Y-94764342D02*
X140261904Y-94859580D01*
X140261904Y-94859580D02*
X140214285Y-94907200D01*
X140214285Y-94907200D02*
X140119047Y-94954819D01*
X140119047Y-94954819D02*
X139880952Y-94954819D01*
X139880952Y-94954819D02*
X139785714Y-94907200D01*
X139785714Y-94907200D02*
X139738095Y-94859580D01*
D11*
X147666667Y-97409800D02*
X147809524Y-97457419D01*
X147809524Y-97457419D02*
X148047619Y-97457419D01*
X148047619Y-97457419D02*
X148142857Y-97409800D01*
X148142857Y-97409800D02*
X148190476Y-97362180D01*
X148190476Y-97362180D02*
X148238095Y-97266942D01*
X148238095Y-97266942D02*
X148238095Y-97171704D01*
X148238095Y-97171704D02*
X148190476Y-97076466D01*
X148190476Y-97076466D02*
X148142857Y-97028847D01*
X148142857Y-97028847D02*
X148047619Y-96981228D01*
X148047619Y-96981228D02*
X147857143Y-96933609D01*
X147857143Y-96933609D02*
X147761905Y-96885990D01*
X147761905Y-96885990D02*
X147714286Y-96838371D01*
X147714286Y-96838371D02*
X147666667Y-96743133D01*
X147666667Y-96743133D02*
X147666667Y-96647895D01*
X147666667Y-96647895D02*
X147714286Y-96552657D01*
X147714286Y-96552657D02*
X147761905Y-96505038D01*
X147761905Y-96505038D02*
X147857143Y-96457419D01*
X147857143Y-96457419D02*
X148095238Y-96457419D01*
X148095238Y-96457419D02*
X148238095Y-96505038D01*
X148571429Y-96457419D02*
X148809524Y-97457419D01*
X148809524Y-97457419D02*
X149000000Y-96743133D01*
X149000000Y-96743133D02*
X149190476Y-97457419D01*
X149190476Y-97457419D02*
X149428572Y-96457419D01*
X149714286Y-96457419D02*
X150333333Y-96457419D01*
X150333333Y-96457419D02*
X150000000Y-96838371D01*
X150000000Y-96838371D02*
X150142857Y-96838371D01*
X150142857Y-96838371D02*
X150238095Y-96885990D01*
X150238095Y-96885990D02*
X150285714Y-96933609D01*
X150285714Y-96933609D02*
X150333333Y-97028847D01*
X150333333Y-97028847D02*
X150333333Y-97266942D01*
X150333333Y-97266942D02*
X150285714Y-97362180D01*
X150285714Y-97362180D02*
X150238095Y-97409800D01*
X150238095Y-97409800D02*
X150142857Y-97457419D01*
X150142857Y-97457419D02*
X149857143Y-97457419D01*
X149857143Y-97457419D02*
X149761905Y-97409800D01*
X149761905Y-97409800D02*
X149714286Y-97362180D01*
D10*
X149383333Y-105064580D02*
X149335714Y-105112200D01*
X149335714Y-105112200D02*
X149192857Y-105159819D01*
X149192857Y-105159819D02*
X149097619Y-105159819D01*
X149097619Y-105159819D02*
X148954762Y-105112200D01*
X148954762Y-105112200D02*
X148859524Y-105016961D01*
X148859524Y-105016961D02*
X148811905Y-104921723D01*
X148811905Y-104921723D02*
X148764286Y-104731247D01*
X148764286Y-104731247D02*
X148764286Y-104588390D01*
X148764286Y-104588390D02*
X148811905Y-104397914D01*
X148811905Y-104397914D02*
X148859524Y-104302676D01*
X148859524Y-104302676D02*
X148954762Y-104207438D01*
X148954762Y-104207438D02*
X149097619Y-104159819D01*
X149097619Y-104159819D02*
X149192857Y-104159819D01*
X149192857Y-104159819D02*
X149335714Y-104207438D01*
X149335714Y-104207438D02*
X149383333Y-104255057D01*
X150335714Y-105159819D02*
X149764286Y-105159819D01*
X150050000Y-105159819D02*
X150050000Y-104159819D01*
X150050000Y-104159819D02*
X149954762Y-104302676D01*
X149954762Y-104302676D02*
X149859524Y-104397914D01*
X149859524Y-104397914D02*
X149764286Y-104445533D01*
X137420833Y-105604819D02*
X137087500Y-105128628D01*
X136849405Y-105604819D02*
X136849405Y-104604819D01*
X136849405Y-104604819D02*
X137230357Y-104604819D01*
X137230357Y-104604819D02*
X137325595Y-104652438D01*
X137325595Y-104652438D02*
X137373214Y-104700057D01*
X137373214Y-104700057D02*
X137420833Y-104795295D01*
X137420833Y-104795295D02*
X137420833Y-104938152D01*
X137420833Y-104938152D02*
X137373214Y-105033390D01*
X137373214Y-105033390D02*
X137325595Y-105081009D01*
X137325595Y-105081009D02*
X137230357Y-105128628D01*
X137230357Y-105128628D02*
X136849405Y-105128628D01*
X138373214Y-105604819D02*
X137801786Y-105604819D01*
X138087500Y-105604819D02*
X138087500Y-104604819D01*
X138087500Y-104604819D02*
X137992262Y-104747676D01*
X137992262Y-104747676D02*
X137897024Y-104842914D01*
X137897024Y-104842914D02*
X137801786Y-104890533D01*
X134920833Y-74454819D02*
X134587500Y-73978628D01*
X134349405Y-74454819D02*
X134349405Y-73454819D01*
X134349405Y-73454819D02*
X134730357Y-73454819D01*
X134730357Y-73454819D02*
X134825595Y-73502438D01*
X134825595Y-73502438D02*
X134873214Y-73550057D01*
X134873214Y-73550057D02*
X134920833Y-73645295D01*
X134920833Y-73645295D02*
X134920833Y-73788152D01*
X134920833Y-73788152D02*
X134873214Y-73883390D01*
X134873214Y-73883390D02*
X134825595Y-73931009D01*
X134825595Y-73931009D02*
X134730357Y-73978628D01*
X134730357Y-73978628D02*
X134349405Y-73978628D01*
X135254167Y-73454819D02*
X135920833Y-73454819D01*
X135920833Y-73454819D02*
X135492262Y-74454819D01*
X134920833Y-84104819D02*
X134587500Y-83628628D01*
X134349405Y-84104819D02*
X134349405Y-83104819D01*
X134349405Y-83104819D02*
X134730357Y-83104819D01*
X134730357Y-83104819D02*
X134825595Y-83152438D01*
X134825595Y-83152438D02*
X134873214Y-83200057D01*
X134873214Y-83200057D02*
X134920833Y-83295295D01*
X134920833Y-83295295D02*
X134920833Y-83438152D01*
X134920833Y-83438152D02*
X134873214Y-83533390D01*
X134873214Y-83533390D02*
X134825595Y-83581009D01*
X134825595Y-83581009D02*
X134730357Y-83628628D01*
X134730357Y-83628628D02*
X134349405Y-83628628D01*
X135825595Y-83104819D02*
X135349405Y-83104819D01*
X135349405Y-83104819D02*
X135301786Y-83581009D01*
X135301786Y-83581009D02*
X135349405Y-83533390D01*
X135349405Y-83533390D02*
X135444643Y-83485771D01*
X135444643Y-83485771D02*
X135682738Y-83485771D01*
X135682738Y-83485771D02*
X135777976Y-83533390D01*
X135777976Y-83533390D02*
X135825595Y-83581009D01*
X135825595Y-83581009D02*
X135873214Y-83676247D01*
X135873214Y-83676247D02*
X135873214Y-83914342D01*
X135873214Y-83914342D02*
X135825595Y-84009580D01*
X135825595Y-84009580D02*
X135777976Y-84057200D01*
X135777976Y-84057200D02*
X135682738Y-84104819D01*
X135682738Y-84104819D02*
X135444643Y-84104819D01*
X135444643Y-84104819D02*
X135349405Y-84057200D01*
X135349405Y-84057200D02*
X135301786Y-84009580D01*
X133034761Y-104190057D02*
X132939523Y-104142438D01*
X132939523Y-104142438D02*
X132844285Y-104047200D01*
X132844285Y-104047200D02*
X132701428Y-103904342D01*
X132701428Y-103904342D02*
X132606190Y-103856723D01*
X132606190Y-103856723D02*
X132510952Y-103856723D01*
X132558571Y-104094819D02*
X132463333Y-104047200D01*
X132463333Y-104047200D02*
X132368095Y-103951961D01*
X132368095Y-103951961D02*
X132320476Y-103761485D01*
X132320476Y-103761485D02*
X132320476Y-103428152D01*
X132320476Y-103428152D02*
X132368095Y-103237676D01*
X132368095Y-103237676D02*
X132463333Y-103142438D01*
X132463333Y-103142438D02*
X132558571Y-103094819D01*
X132558571Y-103094819D02*
X132749047Y-103094819D01*
X132749047Y-103094819D02*
X132844285Y-103142438D01*
X132844285Y-103142438D02*
X132939523Y-103237676D01*
X132939523Y-103237676D02*
X132987142Y-103428152D01*
X132987142Y-103428152D02*
X132987142Y-103761485D01*
X132987142Y-103761485D02*
X132939523Y-103951961D01*
X132939523Y-103951961D02*
X132844285Y-104047200D01*
X132844285Y-104047200D02*
X132749047Y-104094819D01*
X132749047Y-104094819D02*
X132558571Y-104094819D01*
X133939523Y-104094819D02*
X133368095Y-104094819D01*
X133653809Y-104094819D02*
X133653809Y-103094819D01*
X133653809Y-103094819D02*
X133558571Y-103237676D01*
X133558571Y-103237676D02*
X133463333Y-103332914D01*
X133463333Y-103332914D02*
X133368095Y-103380533D01*
D11*
X132690476Y-95457419D02*
X132690476Y-94457419D01*
X132690476Y-94457419D02*
X133023809Y-95171704D01*
X133023809Y-95171704D02*
X133357142Y-94457419D01*
X133357142Y-94457419D02*
X133357142Y-95457419D01*
X134357142Y-95457419D02*
X133785714Y-95457419D01*
X134071428Y-95457419D02*
X134071428Y-94457419D01*
X134071428Y-94457419D02*
X133976190Y-94600276D01*
X133976190Y-94600276D02*
X133880952Y-94695514D01*
X133880952Y-94695514D02*
X133785714Y-94743133D01*
D10*
X143359580Y-96166666D02*
X143407200Y-96214285D01*
X143407200Y-96214285D02*
X143454819Y-96357142D01*
X143454819Y-96357142D02*
X143454819Y-96452380D01*
X143454819Y-96452380D02*
X143407200Y-96595237D01*
X143407200Y-96595237D02*
X143311961Y-96690475D01*
X143311961Y-96690475D02*
X143216723Y-96738094D01*
X143216723Y-96738094D02*
X143026247Y-96785713D01*
X143026247Y-96785713D02*
X142883390Y-96785713D01*
X142883390Y-96785713D02*
X142692914Y-96738094D01*
X142692914Y-96738094D02*
X142597676Y-96690475D01*
X142597676Y-96690475D02*
X142502438Y-96595237D01*
X142502438Y-96595237D02*
X142454819Y-96452380D01*
X142454819Y-96452380D02*
X142454819Y-96357142D01*
X142454819Y-96357142D02*
X142502438Y-96214285D01*
X142502438Y-96214285D02*
X142550057Y-96166666D01*
X142788152Y-95309523D02*
X143454819Y-95309523D01*
X142407200Y-95547618D02*
X143121485Y-95785713D01*
X143121485Y-95785713D02*
X143121485Y-95166666D01*
X137333333Y-100454819D02*
X137000000Y-99978628D01*
X136761905Y-100454819D02*
X136761905Y-99454819D01*
X136761905Y-99454819D02*
X137142857Y-99454819D01*
X137142857Y-99454819D02*
X137238095Y-99502438D01*
X137238095Y-99502438D02*
X137285714Y-99550057D01*
X137285714Y-99550057D02*
X137333333Y-99645295D01*
X137333333Y-99645295D02*
X137333333Y-99788152D01*
X137333333Y-99788152D02*
X137285714Y-99883390D01*
X137285714Y-99883390D02*
X137238095Y-99931009D01*
X137238095Y-99931009D02*
X137142857Y-99978628D01*
X137142857Y-99978628D02*
X136761905Y-99978628D01*
X137714286Y-99550057D02*
X137761905Y-99502438D01*
X137761905Y-99502438D02*
X137857143Y-99454819D01*
X137857143Y-99454819D02*
X138095238Y-99454819D01*
X138095238Y-99454819D02*
X138190476Y-99502438D01*
X138190476Y-99502438D02*
X138238095Y-99550057D01*
X138238095Y-99550057D02*
X138285714Y-99645295D01*
X138285714Y-99645295D02*
X138285714Y-99740533D01*
X138285714Y-99740533D02*
X138238095Y-99883390D01*
X138238095Y-99883390D02*
X137666667Y-100454819D01*
X137666667Y-100454819D02*
X138285714Y-100454819D01*
D11*
X147666667Y-91909800D02*
X147809524Y-91957419D01*
X147809524Y-91957419D02*
X148047619Y-91957419D01*
X148047619Y-91957419D02*
X148142857Y-91909800D01*
X148142857Y-91909800D02*
X148190476Y-91862180D01*
X148190476Y-91862180D02*
X148238095Y-91766942D01*
X148238095Y-91766942D02*
X148238095Y-91671704D01*
X148238095Y-91671704D02*
X148190476Y-91576466D01*
X148190476Y-91576466D02*
X148142857Y-91528847D01*
X148142857Y-91528847D02*
X148047619Y-91481228D01*
X148047619Y-91481228D02*
X147857143Y-91433609D01*
X147857143Y-91433609D02*
X147761905Y-91385990D01*
X147761905Y-91385990D02*
X147714286Y-91338371D01*
X147714286Y-91338371D02*
X147666667Y-91243133D01*
X147666667Y-91243133D02*
X147666667Y-91147895D01*
X147666667Y-91147895D02*
X147714286Y-91052657D01*
X147714286Y-91052657D02*
X147761905Y-91005038D01*
X147761905Y-91005038D02*
X147857143Y-90957419D01*
X147857143Y-90957419D02*
X148095238Y-90957419D01*
X148095238Y-90957419D02*
X148238095Y-91005038D01*
X148571429Y-90957419D02*
X148809524Y-91957419D01*
X148809524Y-91957419D02*
X149000000Y-91243133D01*
X149000000Y-91243133D02*
X149190476Y-91957419D01*
X149190476Y-91957419D02*
X149428572Y-90957419D01*
X149761905Y-91052657D02*
X149809524Y-91005038D01*
X149809524Y-91005038D02*
X149904762Y-90957419D01*
X149904762Y-90957419D02*
X150142857Y-90957419D01*
X150142857Y-90957419D02*
X150238095Y-91005038D01*
X150238095Y-91005038D02*
X150285714Y-91052657D01*
X150285714Y-91052657D02*
X150333333Y-91147895D01*
X150333333Y-91147895D02*
X150333333Y-91243133D01*
X150333333Y-91243133D02*
X150285714Y-91385990D01*
X150285714Y-91385990D02*
X149714286Y-91957419D01*
X149714286Y-91957419D02*
X150333333Y-91957419D01*
D10*
X114143095Y-71454819D02*
X114143095Y-72264342D01*
X114143095Y-72264342D02*
X114190714Y-72359580D01*
X114190714Y-72359580D02*
X114238333Y-72407200D01*
X114238333Y-72407200D02*
X114333571Y-72454819D01*
X114333571Y-72454819D02*
X114524047Y-72454819D01*
X114524047Y-72454819D02*
X114619285Y-72407200D01*
X114619285Y-72407200D02*
X114666904Y-72359580D01*
X114666904Y-72359580D02*
X114714523Y-72264342D01*
X114714523Y-72264342D02*
X114714523Y-71454819D01*
X115714523Y-72454819D02*
X115143095Y-72454819D01*
X115428809Y-72454819D02*
X115428809Y-71454819D01*
X115428809Y-71454819D02*
X115333571Y-71597676D01*
X115333571Y-71597676D02*
X115238333Y-71692914D01*
X115238333Y-71692914D02*
X115143095Y-71740533D01*
X144238095Y-68454819D02*
X144238095Y-69264342D01*
X144238095Y-69264342D02*
X144285714Y-69359580D01*
X144285714Y-69359580D02*
X144333333Y-69407200D01*
X144333333Y-69407200D02*
X144428571Y-69454819D01*
X144428571Y-69454819D02*
X144619047Y-69454819D01*
X144619047Y-69454819D02*
X144714285Y-69407200D01*
X144714285Y-69407200D02*
X144761904Y-69359580D01*
X144761904Y-69359580D02*
X144809523Y-69264342D01*
X144809523Y-69264342D02*
X144809523Y-68454819D01*
X145238095Y-68550057D02*
X145285714Y-68502438D01*
X145285714Y-68502438D02*
X145380952Y-68454819D01*
X145380952Y-68454819D02*
X145619047Y-68454819D01*
X145619047Y-68454819D02*
X145714285Y-68502438D01*
X145714285Y-68502438D02*
X145761904Y-68550057D01*
X145761904Y-68550057D02*
X145809523Y-68645295D01*
X145809523Y-68645295D02*
X145809523Y-68740533D01*
X145809523Y-68740533D02*
X145761904Y-68883390D01*
X145761904Y-68883390D02*
X145190476Y-69454819D01*
X145190476Y-69454819D02*
X145809523Y-69454819D01*
X149383333Y-101679580D02*
X149335714Y-101727200D01*
X149335714Y-101727200D02*
X149192857Y-101774819D01*
X149192857Y-101774819D02*
X149097619Y-101774819D01*
X149097619Y-101774819D02*
X148954762Y-101727200D01*
X148954762Y-101727200D02*
X148859524Y-101631961D01*
X148859524Y-101631961D02*
X148811905Y-101536723D01*
X148811905Y-101536723D02*
X148764286Y-101346247D01*
X148764286Y-101346247D02*
X148764286Y-101203390D01*
X148764286Y-101203390D02*
X148811905Y-101012914D01*
X148811905Y-101012914D02*
X148859524Y-100917676D01*
X148859524Y-100917676D02*
X148954762Y-100822438D01*
X148954762Y-100822438D02*
X149097619Y-100774819D01*
X149097619Y-100774819D02*
X149192857Y-100774819D01*
X149192857Y-100774819D02*
X149335714Y-100822438D01*
X149335714Y-100822438D02*
X149383333Y-100870057D01*
X149764286Y-100870057D02*
X149811905Y-100822438D01*
X149811905Y-100822438D02*
X149907143Y-100774819D01*
X149907143Y-100774819D02*
X150145238Y-100774819D01*
X150145238Y-100774819D02*
X150240476Y-100822438D01*
X150240476Y-100822438D02*
X150288095Y-100870057D01*
X150288095Y-100870057D02*
X150335714Y-100965295D01*
X150335714Y-100965295D02*
X150335714Y-101060533D01*
X150335714Y-101060533D02*
X150288095Y-101203390D01*
X150288095Y-101203390D02*
X149716667Y-101774819D01*
X149716667Y-101774819D02*
X150335714Y-101774819D01*
X142491905Y-100994819D02*
X142491905Y-99994819D01*
X142491905Y-99994819D02*
X142730000Y-99994819D01*
X142730000Y-99994819D02*
X142872857Y-100042438D01*
X142872857Y-100042438D02*
X142968095Y-100137676D01*
X142968095Y-100137676D02*
X143015714Y-100232914D01*
X143015714Y-100232914D02*
X143063333Y-100423390D01*
X143063333Y-100423390D02*
X143063333Y-100566247D01*
X143063333Y-100566247D02*
X143015714Y-100756723D01*
X143015714Y-100756723D02*
X142968095Y-100851961D01*
X142968095Y-100851961D02*
X142872857Y-100947200D01*
X142872857Y-100947200D02*
X142730000Y-100994819D01*
X142730000Y-100994819D02*
X142491905Y-100994819D01*
X144015714Y-100994819D02*
X143444286Y-100994819D01*
X143730000Y-100994819D02*
X143730000Y-99994819D01*
X143730000Y-99994819D02*
X143634762Y-100137676D01*
X143634762Y-100137676D02*
X143539524Y-100232914D01*
X143539524Y-100232914D02*
X143444286Y-100280533D01*
D11*
X138666666Y-112957419D02*
X138666666Y-113671704D01*
X138666666Y-113671704D02*
X138619047Y-113814561D01*
X138619047Y-113814561D02*
X138523809Y-113909800D01*
X138523809Y-113909800D02*
X138380952Y-113957419D01*
X138380952Y-113957419D02*
X138285714Y-113957419D01*
X139666666Y-113957419D02*
X139095238Y-113957419D01*
X139380952Y-113957419D02*
X139380952Y-112957419D01*
X139380952Y-112957419D02*
X139285714Y-113100276D01*
X139285714Y-113100276D02*
X139190476Y-113195514D01*
X139190476Y-113195514D02*
X139095238Y-113243133D01*
D10*
X141109580Y-87666666D02*
X141157200Y-87714285D01*
X141157200Y-87714285D02*
X141204819Y-87857142D01*
X141204819Y-87857142D02*
X141204819Y-87952380D01*
X141204819Y-87952380D02*
X141157200Y-88095237D01*
X141157200Y-88095237D02*
X141061961Y-88190475D01*
X141061961Y-88190475D02*
X140966723Y-88238094D01*
X140966723Y-88238094D02*
X140776247Y-88285713D01*
X140776247Y-88285713D02*
X140633390Y-88285713D01*
X140633390Y-88285713D02*
X140442914Y-88238094D01*
X140442914Y-88238094D02*
X140347676Y-88190475D01*
X140347676Y-88190475D02*
X140252438Y-88095237D01*
X140252438Y-88095237D02*
X140204819Y-87952380D01*
X140204819Y-87952380D02*
X140204819Y-87857142D01*
X140204819Y-87857142D02*
X140252438Y-87714285D01*
X140252438Y-87714285D02*
X140300057Y-87666666D01*
X140204819Y-87333332D02*
X140204819Y-86714285D01*
X140204819Y-86714285D02*
X140585771Y-87047618D01*
X140585771Y-87047618D02*
X140585771Y-86904761D01*
X140585771Y-86904761D02*
X140633390Y-86809523D01*
X140633390Y-86809523D02*
X140681009Y-86761904D01*
X140681009Y-86761904D02*
X140776247Y-86714285D01*
X140776247Y-86714285D02*
X141014342Y-86714285D01*
X141014342Y-86714285D02*
X141109580Y-86761904D01*
X141109580Y-86761904D02*
X141157200Y-86809523D01*
X141157200Y-86809523D02*
X141204819Y-86904761D01*
X141204819Y-86904761D02*
X141204819Y-87190475D01*
X141204819Y-87190475D02*
X141157200Y-87285713D01*
X141157200Y-87285713D02*
X141109580Y-87333332D01*
X134920833Y-80604819D02*
X134587500Y-80128628D01*
X134349405Y-80604819D02*
X134349405Y-79604819D01*
X134349405Y-79604819D02*
X134730357Y-79604819D01*
X134730357Y-79604819D02*
X134825595Y-79652438D01*
X134825595Y-79652438D02*
X134873214Y-79700057D01*
X134873214Y-79700057D02*
X134920833Y-79795295D01*
X134920833Y-79795295D02*
X134920833Y-79938152D01*
X134920833Y-79938152D02*
X134873214Y-80033390D01*
X134873214Y-80033390D02*
X134825595Y-80081009D01*
X134825595Y-80081009D02*
X134730357Y-80128628D01*
X134730357Y-80128628D02*
X134349405Y-80128628D01*
X135777976Y-79938152D02*
X135777976Y-80604819D01*
X135539881Y-79557200D02*
X135301786Y-80271485D01*
X135301786Y-80271485D02*
X135920833Y-80271485D01*
D11*
X147666667Y-88409800D02*
X147809524Y-88457419D01*
X147809524Y-88457419D02*
X148047619Y-88457419D01*
X148047619Y-88457419D02*
X148142857Y-88409800D01*
X148142857Y-88409800D02*
X148190476Y-88362180D01*
X148190476Y-88362180D02*
X148238095Y-88266942D01*
X148238095Y-88266942D02*
X148238095Y-88171704D01*
X148238095Y-88171704D02*
X148190476Y-88076466D01*
X148190476Y-88076466D02*
X148142857Y-88028847D01*
X148142857Y-88028847D02*
X148047619Y-87981228D01*
X148047619Y-87981228D02*
X147857143Y-87933609D01*
X147857143Y-87933609D02*
X147761905Y-87885990D01*
X147761905Y-87885990D02*
X147714286Y-87838371D01*
X147714286Y-87838371D02*
X147666667Y-87743133D01*
X147666667Y-87743133D02*
X147666667Y-87647895D01*
X147666667Y-87647895D02*
X147714286Y-87552657D01*
X147714286Y-87552657D02*
X147761905Y-87505038D01*
X147761905Y-87505038D02*
X147857143Y-87457419D01*
X147857143Y-87457419D02*
X148095238Y-87457419D01*
X148095238Y-87457419D02*
X148238095Y-87505038D01*
X148571429Y-87457419D02*
X148809524Y-88457419D01*
X148809524Y-88457419D02*
X149000000Y-87743133D01*
X149000000Y-87743133D02*
X149190476Y-88457419D01*
X149190476Y-88457419D02*
X149428572Y-87457419D01*
X150333333Y-88457419D02*
X149761905Y-88457419D01*
X150047619Y-88457419D02*
X150047619Y-87457419D01*
X150047619Y-87457419D02*
X149952381Y-87600276D01*
X149952381Y-87600276D02*
X149857143Y-87695514D01*
X149857143Y-87695514D02*
X149761905Y-87743133D01*
D10*
X129711905Y-104804819D02*
X129711905Y-103804819D01*
X129711905Y-103804819D02*
X129950000Y-103804819D01*
X129950000Y-103804819D02*
X130092857Y-103852438D01*
X130092857Y-103852438D02*
X130188095Y-103947676D01*
X130188095Y-103947676D02*
X130235714Y-104042914D01*
X130235714Y-104042914D02*
X130283333Y-104233390D01*
X130283333Y-104233390D02*
X130283333Y-104376247D01*
X130283333Y-104376247D02*
X130235714Y-104566723D01*
X130235714Y-104566723D02*
X130188095Y-104661961D01*
X130188095Y-104661961D02*
X130092857Y-104757200D01*
X130092857Y-104757200D02*
X129950000Y-104804819D01*
X129950000Y-104804819D02*
X129711905Y-104804819D01*
X131140476Y-104138152D02*
X131140476Y-104804819D01*
X130902381Y-103757200D02*
X130664286Y-104471485D01*
X130664286Y-104471485D02*
X131283333Y-104471485D01*
X146179819Y-113411904D02*
X146989342Y-113411904D01*
X146989342Y-113411904D02*
X147084580Y-113364285D01*
X147084580Y-113364285D02*
X147132200Y-113316666D01*
X147132200Y-113316666D02*
X147179819Y-113221428D01*
X147179819Y-113221428D02*
X147179819Y-113030952D01*
X147179819Y-113030952D02*
X147132200Y-112935714D01*
X147132200Y-112935714D02*
X147084580Y-112888095D01*
X147084580Y-112888095D02*
X146989342Y-112840476D01*
X146989342Y-112840476D02*
X146179819Y-112840476D01*
X146179819Y-112459523D02*
X146179819Y-111840476D01*
X146179819Y-111840476D02*
X146560771Y-112173809D01*
X146560771Y-112173809D02*
X146560771Y-112030952D01*
X146560771Y-112030952D02*
X146608390Y-111935714D01*
X146608390Y-111935714D02*
X146656009Y-111888095D01*
X146656009Y-111888095D02*
X146751247Y-111840476D01*
X146751247Y-111840476D02*
X146989342Y-111840476D01*
X146989342Y-111840476D02*
X147084580Y-111888095D01*
X147084580Y-111888095D02*
X147132200Y-111935714D01*
X147132200Y-111935714D02*
X147179819Y-112030952D01*
X147179819Y-112030952D02*
X147179819Y-112316666D01*
X147179819Y-112316666D02*
X147132200Y-112411904D01*
X147132200Y-112411904D02*
X147084580Y-112459523D01*
X134920833Y-77604819D02*
X134587500Y-77128628D01*
X134349405Y-77604819D02*
X134349405Y-76604819D01*
X134349405Y-76604819D02*
X134730357Y-76604819D01*
X134730357Y-76604819D02*
X134825595Y-76652438D01*
X134825595Y-76652438D02*
X134873214Y-76700057D01*
X134873214Y-76700057D02*
X134920833Y-76795295D01*
X134920833Y-76795295D02*
X134920833Y-76938152D01*
X134920833Y-76938152D02*
X134873214Y-77033390D01*
X134873214Y-77033390D02*
X134825595Y-77081009D01*
X134825595Y-77081009D02*
X134730357Y-77128628D01*
X134730357Y-77128628D02*
X134349405Y-77128628D01*
X135777976Y-76604819D02*
X135587500Y-76604819D01*
X135587500Y-76604819D02*
X135492262Y-76652438D01*
X135492262Y-76652438D02*
X135444643Y-76700057D01*
X135444643Y-76700057D02*
X135349405Y-76842914D01*
X135349405Y-76842914D02*
X135301786Y-77033390D01*
X135301786Y-77033390D02*
X135301786Y-77414342D01*
X135301786Y-77414342D02*
X135349405Y-77509580D01*
X135349405Y-77509580D02*
X135397024Y-77557200D01*
X135397024Y-77557200D02*
X135492262Y-77604819D01*
X135492262Y-77604819D02*
X135682738Y-77604819D01*
X135682738Y-77604819D02*
X135777976Y-77557200D01*
X135777976Y-77557200D02*
X135825595Y-77509580D01*
X135825595Y-77509580D02*
X135873214Y-77414342D01*
X135873214Y-77414342D02*
X135873214Y-77176247D01*
X135873214Y-77176247D02*
X135825595Y-77081009D01*
X135825595Y-77081009D02*
X135777976Y-77033390D01*
X135777976Y-77033390D02*
X135682738Y-76985771D01*
X135682738Y-76985771D02*
X135492262Y-76985771D01*
X135492262Y-76985771D02*
X135397024Y-77033390D01*
X135397024Y-77033390D02*
X135349405Y-77081009D01*
X135349405Y-77081009D02*
X135301786Y-77176247D01*
X142920833Y-114104819D02*
X142587500Y-113628628D01*
X142349405Y-114104819D02*
X142349405Y-113104819D01*
X142349405Y-113104819D02*
X142730357Y-113104819D01*
X142730357Y-113104819D02*
X142825595Y-113152438D01*
X142825595Y-113152438D02*
X142873214Y-113200057D01*
X142873214Y-113200057D02*
X142920833Y-113295295D01*
X142920833Y-113295295D02*
X142920833Y-113438152D01*
X142920833Y-113438152D02*
X142873214Y-113533390D01*
X142873214Y-113533390D02*
X142825595Y-113581009D01*
X142825595Y-113581009D02*
X142730357Y-113628628D01*
X142730357Y-113628628D02*
X142349405Y-113628628D01*
X143254167Y-113104819D02*
X143873214Y-113104819D01*
X143873214Y-113104819D02*
X143539881Y-113485771D01*
X143539881Y-113485771D02*
X143682738Y-113485771D01*
X143682738Y-113485771D02*
X143777976Y-113533390D01*
X143777976Y-113533390D02*
X143825595Y-113581009D01*
X143825595Y-113581009D02*
X143873214Y-113676247D01*
X143873214Y-113676247D02*
X143873214Y-113914342D01*
X143873214Y-113914342D02*
X143825595Y-114009580D01*
X143825595Y-114009580D02*
X143777976Y-114057200D01*
X143777976Y-114057200D02*
X143682738Y-114104819D01*
X143682738Y-114104819D02*
X143397024Y-114104819D01*
X143397024Y-114104819D02*
X143301786Y-114057200D01*
X143301786Y-114057200D02*
X143254167Y-114009580D01*
D11*
X133566390Y-111714285D02*
X133518771Y-111857142D01*
X133518771Y-111857142D02*
X133471152Y-111904761D01*
X133471152Y-111904761D02*
X133375914Y-111952380D01*
X133375914Y-111952380D02*
X133233057Y-111952380D01*
X133233057Y-111952380D02*
X133137819Y-111904761D01*
X133137819Y-111904761D02*
X133090200Y-111857142D01*
X133090200Y-111857142D02*
X133042580Y-111761904D01*
X133042580Y-111761904D02*
X133042580Y-111380952D01*
X133042580Y-111380952D02*
X134042580Y-111380952D01*
X134042580Y-111380952D02*
X134042580Y-111714285D01*
X134042580Y-111714285D02*
X133994961Y-111809523D01*
X133994961Y-111809523D02*
X133947342Y-111857142D01*
X133947342Y-111857142D02*
X133852104Y-111904761D01*
X133852104Y-111904761D02*
X133756866Y-111904761D01*
X133756866Y-111904761D02*
X133661628Y-111857142D01*
X133661628Y-111857142D02*
X133614009Y-111809523D01*
X133614009Y-111809523D02*
X133566390Y-111714285D01*
X133566390Y-111714285D02*
X133566390Y-111380952D01*
X134042580Y-112238095D02*
X134042580Y-112809523D01*
X133042580Y-112523809D02*
X134042580Y-112523809D01*
X133042580Y-113666666D02*
X133042580Y-113095238D01*
X133042580Y-113380952D02*
X134042580Y-113380952D01*
X134042580Y-113380952D02*
X133899723Y-113285714D01*
X133899723Y-113285714D02*
X133804485Y-113190476D01*
X133804485Y-113190476D02*
X133756866Y-113095238D01*
D10*
X113643095Y-95109819D02*
X113643095Y-95919342D01*
X113643095Y-95919342D02*
X113690714Y-96014580D01*
X113690714Y-96014580D02*
X113738333Y-96062200D01*
X113738333Y-96062200D02*
X113833571Y-96109819D01*
X113833571Y-96109819D02*
X114024047Y-96109819D01*
X114024047Y-96109819D02*
X114119285Y-96062200D01*
X114119285Y-96062200D02*
X114166904Y-96014580D01*
X114166904Y-96014580D02*
X114214523Y-95919342D01*
X114214523Y-95919342D02*
X114214523Y-95109819D01*
X115119285Y-95443152D02*
X115119285Y-96109819D01*
X114881190Y-95062200D02*
X114643095Y-95776485D01*
X114643095Y-95776485D02*
X115262142Y-95776485D01*
%TO.C,U5*%
D12*
X137440000Y-96452500D02*
X137490000Y-96452500D01*
X137440000Y-98272500D02*
X137440000Y-96452500D01*
X137490000Y-98272500D02*
X137440000Y-98272500D01*
X138610000Y-96452500D02*
X139390000Y-96452500D01*
X140510000Y-96452500D02*
X140560000Y-96452500D01*
X140560000Y-96452500D02*
X140560000Y-98272500D01*
X140560000Y-98272500D02*
X140510000Y-98272500D01*
X137490000Y-98812500D02*
X137160000Y-99052500D01*
X137160000Y-98572500D01*
X137490000Y-98812500D01*
G36*
X137490000Y-98812500D02*
G01*
X137160000Y-99052500D01*
X137160000Y-98572500D01*
X137490000Y-98812500D01*
G37*
%TO.C,SW3*%
D11*
X146500000Y-96000000D02*
X146500000Y-98000000D01*
X146500000Y-96000000D02*
X151500000Y-96000000D01*
X146500000Y-98000000D02*
X151500000Y-98000000D01*
X151500000Y-98000000D02*
X151500000Y-96000000D01*
%TO.C,C1*%
D12*
X149288748Y-105765000D02*
X149811252Y-105765000D01*
X149288748Y-107235000D02*
X149811252Y-107235000D01*
%TO.C,R1*%
X137814564Y-102765000D02*
X137360436Y-102765000D01*
X137814564Y-104235000D02*
X137360436Y-104235000D01*
%TO.C,R7*%
X135314564Y-85265000D02*
X134860436Y-85265000D01*
X135314564Y-86735000D02*
X134860436Y-86735000D01*
%TO.C,R5*%
X135314564Y-81265000D02*
X134860436Y-81265000D01*
X135314564Y-82735000D02*
X134860436Y-82735000D01*
%TO.C,Q1*%
X131330000Y-109050000D02*
X134930000Y-109050000D01*
X131291522Y-109038478D02*
G75*
G02*
X133130000Y-104599999I1838478J1838478D01*
G01*
X133130000Y-104600000D02*
G75*
G02*
X134968478Y-109038478I0J-2600000D01*
G01*
%TO.C,C4*%
X141880000Y-92380000D02*
X144120000Y-92380000D01*
X141880000Y-99620000D02*
X141880000Y-92380000D01*
X144120000Y-92380000D02*
X144120000Y-99620000D01*
X144120000Y-99620000D02*
X141880000Y-99620000D01*
%TO.C,R2*%
X137814564Y-100765000D02*
X137360436Y-100765000D01*
X137814564Y-102235000D02*
X137360436Y-102235000D01*
%TO.C,SW2*%
D11*
X146500000Y-90500000D02*
X146500000Y-92500000D01*
X146500000Y-90500000D02*
X151500000Y-90500000D01*
X146500000Y-92500000D02*
X151500000Y-92500000D01*
X151500000Y-92500000D02*
X151500000Y-90500000D01*
%TO.C,U1*%
D13*
X111620000Y-96350000D02*
X111620000Y-73650000D01*
X116120000Y-72350000D02*
X116120000Y-73650000D01*
X116120000Y-73650000D02*
X111620000Y-73650000D01*
X125120000Y-72350000D02*
X116120000Y-72350000D01*
X125120000Y-72350000D02*
X125120000Y-73650000D01*
X129620000Y-73650000D02*
X125120000Y-73650000D01*
X129620000Y-96350000D02*
X111620000Y-96350000D01*
X129620000Y-96350000D02*
X129620000Y-73650000D01*
%TO.C,U2*%
X149145000Y-82615000D02*
X141545000Y-82615000D01*
X149145000Y-72115000D02*
X141545000Y-72115000D01*
D14*
X152150000Y-82400000D02*
G75*
G02*
X151950000Y-82400000I-100000J0D01*
G01*
X151950000Y-82400000D02*
G75*
G02*
X152150000Y-82400000I100000J0D01*
G01*
%TO.C,C2*%
D12*
X149288748Y-102265000D02*
X149811252Y-102265000D01*
X149288748Y-103735000D02*
X149811252Y-103735000D01*
%TO.C,D1*%
X140670000Y-102955000D02*
X140670000Y-106045000D01*
X140670000Y-102955170D02*
G75*
G02*
X146220000Y-104500000I2560000J-1544830D01*
G01*
X146220000Y-104500000D02*
G75*
G02*
X140670000Y-106044830I-2990000J0D01*
G01*
X145730000Y-104500000D02*
G75*
G02*
X140730000Y-104500000I-2500000J0D01*
G01*
X140730000Y-104500000D02*
G75*
G02*
X145730000Y-104500000I2500000J0D01*
G01*
%TO.C,C3*%
X141880000Y-83880000D02*
X144120000Y-83880000D01*
X141880000Y-91120000D02*
X141880000Y-83880000D01*
X144120000Y-83880000D02*
X144120000Y-91120000D01*
X144120000Y-91120000D02*
X141880000Y-91120000D01*
%TO.C,R4*%
X135314564Y-77765000D02*
X134860436Y-77765000D01*
X135314564Y-79235000D02*
X134860436Y-79235000D01*
%TO.C,SW1*%
D11*
X146500000Y-85000000D02*
X146500000Y-87000000D01*
X146500000Y-85000000D02*
X151500000Y-85000000D01*
X146500000Y-87000000D02*
X151500000Y-87000000D01*
X151500000Y-87000000D02*
X151500000Y-85000000D01*
%TO.C,D4*%
D12*
X132060000Y-101650000D02*
X129400000Y-101650000D01*
X132060000Y-103350000D02*
X129400000Y-103350000D01*
X132060000Y-103350000D02*
X132060000Y-101650000D01*
%TO.C,U3*%
X147565000Y-111040000D02*
X147740000Y-111040000D01*
X147565000Y-114260000D02*
X147565000Y-111040000D01*
X147740000Y-114260000D02*
X147565000Y-114260000D01*
X150610000Y-111040000D02*
X150785000Y-111040000D01*
X150785000Y-111040000D02*
X150785000Y-114260000D01*
X150785000Y-114260000D02*
X150610000Y-114260000D01*
X147735000Y-114810000D02*
X147405000Y-115050000D01*
X147405000Y-114570000D01*
X147735000Y-114810000D01*
G36*
X147735000Y-114810000D02*
G01*
X147405000Y-115050000D01*
X147405000Y-114570000D01*
X147735000Y-114810000D01*
G37*
%TO.C,R6*%
X135314564Y-74765000D02*
X134860436Y-74765000D01*
X135314564Y-76235000D02*
X134860436Y-76235000D01*
%TO.C,R3*%
X143314564Y-111265000D02*
X142860436Y-111265000D01*
X143314564Y-112735000D02*
X142860436Y-112735000D01*
%TO.C,U4*%
D13*
X111480000Y-117840000D02*
X111480000Y-97540000D01*
X114272500Y-97540000D02*
X127180000Y-97540000D01*
X127180000Y-97540000D02*
X127180000Y-117840000D01*
X127180000Y-117840000D02*
X114272500Y-117840000D01*
%TD*%
M02*
