%TF.GenerationSoftware,KiCad,Pcbnew,10.0.5*%
%TF.CreationDate,2026-08-01T13:19:58+08:00*%
%TF.ProjectId,Vibra1,56696272-6131-42e6-9b69-6361645f7063,rev?*%
%TF.SameCoordinates,Original*%
%TF.FileFunction,Soldermask,Bot*%
%TF.FilePolarity,Negative*%
%FSLAX46Y46*%
G04 Gerber Fmt 4.6, Leading zero omitted, Abs format (unit mm)*
G04 Created by KiCad (PCBNEW 10.0.5) date 2026-08-01 13:19:58*
%MOMM*%
%LPD*%
G01*
G04 APERTURE LIST*
G04 Aperture macros list*
%AMRoundRect*
0 Rectangle with rounded corners*
0 $1 Rounding radius*
0 $2 $3 $4 $5 $6 $7 $8 $9 X,Y pos of 4 corners*
0 Add a 4 corners polygon primitive as box body*
4,1,4,$2,$3,$4,$5,$6,$7,$8,$9,$2,$3,0*
0 Add four circle primitives for the rounded corners*
1,1,$1+$1,$2,$3*
1,1,$1+$1,$4,$5*
1,1,$1+$1,$6,$7*
1,1,$1+$1,$8,$9*
0 Add four rect primitives between the rounded corners*
20,1,$1+$1,$2,$3,$4,$5,0*
20,1,$1+$1,$4,$5,$6,$7,0*
20,1,$1+$1,$6,$7,$8,$9,0*
20,1,$1+$1,$8,$9,$2,$3,0*%
G04 Aperture macros list end*
%ADD10C,1.800000*%
%ADD11R,1.050000X1.500000*%
%ADD12O,1.050000X1.500000*%
%ADD13RoundRect,0.300000X-0.700000X-0.700000X0.700000X-0.700000X0.700000X0.700000X-0.700000X0.700000X0*%
%ADD14C,1.600000*%
%ADD15C,1.552000*%
%ADD16R,1.800000X1.800000*%
%ADD17C,2.500000*%
%ADD18RoundRect,0.300000X-0.700000X0.700000X-0.700000X-0.700000X0.700000X-0.700000X0.700000X0.700000X0*%
%ADD19C,3.200000*%
%ADD20C,2.109000*%
G04 APERTURE END LIST*
D10*
%TO.C,SW3*%
X146500000Y-99500000D03*
X151500000Y-99500000D03*
%TD*%
D11*
%TO.C,Q1*%
X131860000Y-107200000D03*
D12*
X133130000Y-107200000D03*
X134400000Y-107200000D03*
%TD*%
D13*
%TO.C,M1*%
X132460000Y-98500000D03*
X135000000Y-98500000D03*
%TD*%
D14*
%TO.C,C4*%
X143000000Y-98500000D03*
X143000000Y-93500000D03*
%TD*%
D10*
%TO.C,SW2*%
X146500000Y-94000000D03*
X151500000Y-94000000D03*
%TD*%
D15*
%TO.C,U1*%
X128240000Y-92880000D03*
X128240000Y-90340000D03*
X128240000Y-87800000D03*
X128240000Y-85260000D03*
X128240000Y-80180000D03*
X128240000Y-82720000D03*
X113000000Y-75100000D03*
X128240000Y-75100000D03*
X113000000Y-77640000D03*
X113000000Y-80180000D03*
X113000000Y-82720000D03*
X113000000Y-85260000D03*
X113000000Y-87800000D03*
X113000000Y-90340000D03*
X113000000Y-92880000D03*
X128240000Y-77640000D03*
%TD*%
D16*
%TO.C,D1*%
X141960000Y-104500000D03*
D10*
X144500000Y-104500000D03*
%TD*%
D17*
%TO.C,J1*%
X138000000Y-116000000D03*
X142000000Y-116000000D03*
%TD*%
D14*
%TO.C,C3*%
X143000000Y-90000000D03*
X143000000Y-85000000D03*
%TD*%
D10*
%TO.C,SW1*%
X146500000Y-88500000D03*
X151500000Y-88500000D03*
%TD*%
D18*
%TO.C,BT1*%
X130000000Y-112500000D03*
X130000000Y-115040000D03*
%TD*%
D19*
%TO.C,U4*%
X124760000Y-99630000D03*
X124760000Y-115750000D03*
D20*
X113000000Y-114040000D03*
X113000000Y-101340000D03*
X113000000Y-116580000D03*
X113000000Y-103880000D03*
X113000000Y-106420000D03*
X113000000Y-98800000D03*
X113000000Y-111500000D03*
X113000000Y-108960000D03*
%TD*%
M02*
